####
#
# OBJ File Generated by Meshlab
#
####
# Object lamp2.obj
#
# Vertices: 249
# Faces: 256
#
####
vn 2.748488 0.400556 0.979710
v 1.317484 0.950404 0.631526
vn 5.863439 0.854519 2.090048
v 1.359950 0.858516 0.549959
vn 2.748485 0.400556 0.979709
v 1.322099 0.966244 0.612103
vn 2.748491 0.400556 0.979711
v 1.328168 0.977944 0.590292
vn 2.748487 0.400556 0.979706
v 1.335459 0.985055 0.566931
vn 2.748485 0.400556 0.979707
v 1.343691 0.987303 0.542918
vn 2.748490 0.400557 0.979710
v 1.352548 0.984601 0.519175
vn 2.748485 0.400558 0.979711
v 1.361689 0.977055 0.496615
vn 2.748485 0.400556 0.979710
v 1.370764 0.964953 0.476106
vn 2.748490 0.400555 0.979708
v 1.379423 0.948760 0.458434
vn 2.748486 0.400558 0.979710
v 1.387333 0.929100 0.444280
vn 2.748485 0.400558 0.979710
v 1.394192 0.906727 0.434187
vn 1.791687 -0.176283 3.899772
v 1.399734 0.882501 0.428543
vn 2.748485 0.400556 0.979709
v 1.403748 0.857353 0.427565
vn 2.748488 0.400558 0.979710
v 1.406078 0.832251 0.431290
vn 2.748484 0.400554 0.979711
v 1.406636 0.808157 0.439576
vn 2.748488 0.400552 0.979713
v 1.405399 0.785999 0.452104
vn 2.748491 0.400558 0.979708
v 1.402416 0.766628 0.468392
vn 2.748485 0.400557 0.979707
v 1.397802 0.750788 0.487815
vn 2.748486 0.400556 0.979709
v 1.391732 0.739088 0.509626
vn 2.748489 0.400557 0.979712
v 1.384441 0.731977 0.532987
vn 2.748483 0.400555 0.979713
v 1.376209 0.729729 0.557001
vn 2.748485 0.400555 0.979710
v 1.367352 0.732431 0.580743
vn 2.748490 0.400554 0.979707
v 1.358211 0.739978 0.603303
vn 2.748486 0.400557 0.979710
v 1.349136 0.752080 0.623813
vn 2.748486 0.400559 0.979714
v 1.340477 0.768272 0.641484
vn 2.748488 0.400552 0.979709
v 1.332567 0.787933 0.655638
vn 2.748489 0.400552 0.979709
v 1.325709 0.810306 0.665732
vn 2.748485 0.400557 0.979709
v 1.320166 0.834532 0.671376
vn 2.748487 0.400558 0.979710
v 1.316153 0.859679 0.672354
vn 2.748487 0.400559 0.979710
v 1.313822 0.884782 0.668628
vn 2.748484 0.400555 0.979711
v 1.313264 0.908875 0.660342
vn 2.748489 0.400553 0.979713
v 1.314501 0.931033 0.647814
vn 2.748486 0.400556 0.979709
v 1.308990 0.968782 0.647839
vn 5.863439 0.854520 2.090049
v 1.359950 0.858516 0.549959
vn 2.748488 0.400554 0.979712
v 1.314528 0.987790 0.624532
vn 2.748489 0.400555 0.979710
v 1.321812 1.001830 0.598359
vn 2.748485 0.400555 0.979711
v 1.330561 1.010363 0.570325
vn 2.748485 0.400554 0.979710
v 1.340439 1.013060 0.541509
vn 2.748493 0.400555 0.979707
v 1.351067 1.009819 0.513018
vn 2.748483 0.400557 0.979711
v 1.362037 1.000762 0.485947
vn 2.748487 0.400555 0.979712
v 1.372926 0.986240 0.461335
vn 3.216800 2.570898 -1.221443
v 1.383317 0.966809 0.440129
vn 2.748487 0.400557 0.979711
v 1.392810 0.943216 0.423144
vn 2.748486 0.400558 0.979711
v 1.401040 0.916369 0.411032
vn 2.748487 0.400559 0.979712
v 1.407691 0.887298 0.404259
vn 2.748483 0.400554 0.979711
v 1.412507 0.857121 0.403086
vn 2.748489 0.400556 0.979712
v 1.415303 0.826998 0.407556
vn 2.748486 0.400557 0.979711
v 1.415973 0.798086 0.417499
vn 2.748486 0.400556 0.979710
v 1.414489 0.771496 0.432533
vn 2.748486 0.400556 0.979712
v 1.410910 0.748250 0.452079
vn 2.748489 0.400557 0.979711
v 1.405372 0.729242 0.475386
vn 2.748483 0.400557 0.979709
v 1.398088 0.715202 0.501560
vn 2.748490 0.400557 0.979711
v 1.389339 0.706669 0.529593
vn 2.748485 0.400558 0.979710
v 1.379461 0.703972 0.558409
vn 2.748486 0.400556 0.979711
v 1.368832 0.707214 0.586900
vn 2.748487 0.400556 0.979706
v 1.357863 0.716270 0.613972
vn 2.748489 0.400558 0.979710
v 1.346973 0.730793 0.638583
vn 2.748486 0.400558 0.979710
v 1.336583 0.750224 0.659789
vn 2.748488 0.400558 0.979710
v 1.327090 0.773816 0.676774
vn 2.748484 0.400558 0.979709
v 1.318860 0.800664 0.688886
vn 2.748485 0.400557 0.979710
v 1.312209 0.829735 0.695659
vn 2.748491 0.400557 0.979711
v 1.307393 0.859912 0.696832
vn 2.748484 0.400555 0.979709
v 1.304596 0.890035 0.692362
vn 2.748488 0.400553 0.979712
v 1.303927 0.918947 0.682419
vn 2.748489 0.400555 0.979710
v 1.305411 0.945536 0.667385
vn -2.748482 -0.400569 -0.979710
v 0.889601 0.946099 0.413142
vn -2.748489 -0.400571 -0.979712
v 0.899479 0.948796 0.384326
vn -3.114952 -0.453979 -1.110339
v 0.894499 0.920791 0.409748
vn -3.114945 -0.453981 -1.110338
v 0.902731 0.923039 0.385734
vn -3.114947 -0.453980 -1.110343
v 0.887208 0.913681 0.433109
vn -2.748484 -0.400570 -0.979714
v 0.880852 0.937567 0.441175
vn -2.748488 -0.400543 -0.979713
v 0.927872 0.642949 0.429718
vn -3.114953 -0.453949 -1.110341
v 0.926392 0.668167 0.423561
vn -2.357468 -3.497832 -0.810354
v 0.938501 0.639708 0.401227
vn -3.114952 -0.453949 -1.110338
v 0.935249 0.665465 0.399819
vn -3.114953 -0.453975 -1.110347
v 0.881139 0.901981 0.454920
vn -2.748480 -0.400565 -0.979715
v 0.873568 0.923527 0.467348
vn -2.748485 -0.400574 -0.979707
v 0.910108 0.945554 0.355835
vn -2.748487 -0.400545 -0.979717
v 0.916903 0.652006 0.456790
vn -3.114951 -0.453951 -1.110345
v 0.917251 0.675713 0.446121
vn -2.748489 -0.400543 -0.979709
v 0.948379 0.642405 0.372411
vn -3.114956 -0.453949 -1.110337
v 0.943481 0.667713 0.375805
vn -2.748492 -0.400546 -0.979707
v 0.957128 0.650938 0.344378
vn -3.008552 -2.960311 0.796440
v 0.906013 0.666528 0.481401
vn -3.114952 -0.453951 -1.110347
v 0.908176 0.687816 0.466630
vn -3.114949 -0.453975 -1.110349
v 0.876524 0.886140 0.474344
vn -2.748477 -0.400566 -0.979719
v 0.868030 0.904518 0.490657
vn -3.114952 -0.453984 -1.110336
v 0.911588 0.920337 0.361992
vn -2.748486 -0.400570 -0.979703
v 0.921077 0.936498 0.328763
vn -3.114953 -0.453953 -1.110333
v 0.950772 0.674823 0.352444
vn -2.748488 -0.400546 -0.979705
v 0.964411 0.664978 0.318205
vn -4.025271 2.136893 0.384204
v 0.956841 0.686523 0.330633
vn -3.114955 -0.453951 -1.110326
v 0.961456 0.702363 0.311210
vn -2.748493 -0.400545 -0.979698
v 0.969949 0.683986 0.294897
vn -3.216797 -2.570885 1.221434
v 0.895623 0.685959 0.502607
vn -3.114947 -0.453950 -1.110350
v 0.899517 0.704008 0.484302
vn -3.114955 -0.453972 -1.110326
v 0.946373 0.864835 0.287097
vn -2.748492 -0.400566 -0.979703
v 0.942357 0.902544 0.282946
vn -2.748488 -0.400562 -0.979697
v 0.951850 0.878951 0.265961
vn -3.114954 -0.453972 -1.110331
v 0.938463 0.884495 0.301251
vn -3.114948 -0.453973 -1.110353
v 0.873541 0.866769 0.490632
vn -2.748480 -0.400564 -0.979721
v 0.864451 0.881272 0.510203
vn -3.114950 -0.453977 -1.110327
v 0.929804 0.900688 0.318923
vn -2.748488 -0.400569 -0.979702
v 0.931967 0.921975 0.304152
vn -3.114954 -0.453978 -1.110330
v 0.920730 0.912790 0.339432
vn -3.407048 -2.098066 1.561843
v 0.886130 0.709552 0.519592
vn -2.456385 1.243556 -3.651912
v 0.891607 0.723669 0.498456
vn -2.748481 -0.400551 -0.979723
v 0.877900 0.736399 0.531704
vn -3.114951 -0.453959 -1.110355
v 0.884748 0.746041 0.508549
vn -3.114956 -0.453957 -1.110322
v 0.965676 0.743893 0.282394
vn -3.114956 -0.453960 -1.110324
v 0.965118 0.767986 0.274108
vn -2.748493 -0.400550 -0.979698
v 0.975013 0.733821 0.260317
vn -2.748493 -0.400553 -0.979699
v 0.974343 0.762733 0.250374
vn -2.748482 -0.400553 -0.979721
v 0.871249 0.765470 0.538477
vn -3.114943 -0.453960 -1.110351
v 0.879206 0.770267 0.514193
vn -2.748485 -0.400557 -0.979724
v 0.866433 0.795647 0.539650
vn -2.748477 -0.400559 -0.979723
v 0.863636 0.825770 0.535180
vn -3.114948 -0.453963 -1.110355
v 0.875192 0.795414 0.515171
vn -3.114949 -0.453968 -1.110355
v 0.872862 0.820517 0.511446
vn -3.114957 -0.453968 -1.110320
v 0.953232 0.842462 0.277004
vn -2.748492 -0.400561 -0.979696
v 0.960080 0.852103 0.253850
vn -3.114954 -0.453966 -1.110326
v 0.958774 0.818236 0.271360
vn -2.748492 -0.400560 -0.979703
v 0.966731 0.823033 0.247077
vn -3.871266 0.810549 1.674966
v 0.862967 0.854682 0.525237
vn -3.114943 -0.453970 -1.110349
v 0.872304 0.844610 0.503160
vn -2.748493 -0.400546 -0.979697
v 0.973529 0.707231 0.275351
vn -3.114961 -0.453953 -1.110324
v 0.964439 0.721735 0.294922
vn -2.748488 -0.400555 -0.979699
v 0.971547 0.792856 0.245903
vn -3.114957 -0.453964 -1.110327
v 0.962788 0.793088 0.270382
vn -1.093036 1.743994 2.353376
v 1.305411 0.945536 0.667385
vn -1.021303 2.209887 1.961653
v 0.868030 0.904517 0.490657
vn -1.093045 1.744009 2.353394
v 0.864451 0.881272 0.510203
vn -1.021315 2.209893 1.961680
v 1.308990 0.968782 0.647839
vn -1.122779 1.211131 2.654681
v 1.303927 0.918947 0.682419
vn -1.109374 0.631679 2.853980
v 1.304596 0.890035 0.692362
vn -1.109365 0.631677 2.853959
v 0.863636 0.825770 0.535180
vn -1.053313 0.027966 2.943540
v 1.307393 0.859912 0.696832
vn -1.053318 0.027961 2.943554
v 0.866433 0.795647 0.539650
vn -0.956797 -0.576820 2.920041
v 1.312209 0.829735 0.695659
vn -0.956795 -0.576829 2.920037
v 0.871249 0.765470 0.538477
vn -0.823499 -1.159449 2.784292
v 1.318860 0.800664 0.688886
vn -0.823499 -1.159447 2.784293
v 0.877900 0.736399 0.531704
vn -0.658562 -1.697517 2.541569
v 1.327090 0.773816 0.676774
vn -0.468309 -2.170315 2.201136
v 1.336583 0.750224 0.659789
vn -0.260072 -2.559800 1.776187
v 1.346973 0.730793 0.638583
vn -0.041829 -2.850786 1.282897
v 1.357863 0.716270 0.613972
vn -0.041827 -2.850822 1.282906
v 0.916903 0.652006 0.456790
vn 0.178020 -3.032361 0.740367
v 1.368832 0.707214 0.586900
vn 0.178017 -3.032322 0.740358
v 0.927872 0.642950 0.429718
vn 0.391022 -3.097250 0.169339
v 1.379461 0.703972 0.558409
vn 0.589007 -3.043245 -0.408168
v 1.389339 0.706669 0.529593
vn 0.589004 -3.043234 -0.408162
v 0.948379 0.642405 0.372411
vn 0.764351 -2.872249 -0.969991
v 1.398088 0.715202 0.501560
vn 0.764345 -2.872225 -0.969984
v 0.957128 0.650938 0.344378
vn 0.910311 -2.590826 -1.494532
v 1.405372 0.729242 0.475387
vn 0.910315 -2.590849 -1.494530
v 0.964411 0.664978 0.318205
vn 1.021299 -2.209870 -1.961651
v 1.410910 0.748250 0.452079
vn 1.021304 -2.209896 -1.961654
v 0.969949 0.683986 0.294897
vn 1.093043 -1.744020 -2.353385
v 0.973529 0.707231 0.275351
vn 1.093054 -1.744026 -2.353412
v 1.414489 0.771496 0.432533
vn 1.122777 -1.211125 -2.654676
v 0.975013 0.733821 0.260317
vn 1.122768 -1.211098 -2.654659
v 1.415973 0.798086 0.417499
vn 1.109368 -0.631689 -2.853961
v 0.974343 0.762733 0.250374
vn 1.109380 -0.631688 -2.853993
v 1.415303 0.826998 0.407556
vn 1.053319 -0.027980 -2.943551
v 0.971547 0.792856 0.245904
vn 1.053316 -0.027975 -2.943543
v 1.412507 0.857121 0.403086
vn 0.956798 0.576808 -2.920041
v 0.966731 0.823033 0.247077
vn 0.956791 0.576826 -2.920026
v 1.407691 0.887298 0.404259
vn 0.823504 1.159426 -2.784300
v 0.960080 0.852103 0.253850
vn 0.823501 1.159451 -2.784298
v 1.401040 0.916369 0.411032
vn 0.658566 1.697497 -2.541572
v 0.951850 0.878951 0.265961
vn 0.658559 1.697512 -2.541554
v 1.392810 0.943216 0.423144
vn 0.468318 2.170331 -2.201166
v 0.942357 0.902544 0.282946
vn 0.260060 2.559791 -1.776152
v 1.372926 0.986240 0.461335
vn 0.260078 2.559754 -1.776178
v 0.931967 0.921975 0.304152
vn 0.041837 2.850802 -1.282923
v 1.362037 1.000762 0.485947
vn 0.041838 2.850812 -1.282931
v 0.921077 0.936498 0.328763
vn -0.178021 3.032327 -0.740355
v 1.351067 1.009819 0.513018
vn -0.178013 3.032319 -0.740370
v 0.910108 0.945554 0.355835
vn -0.391039 3.097309 -0.169322
v 1.340439 1.013060 0.541509
vn -0.391015 3.097290 -0.169372
v 0.899479 0.948796 0.384326
vn -0.589001 3.043208 0.408168
v 1.330561 1.010363 0.570325
vn -0.588992 3.043231 0.408139
v 0.889601 0.946099 0.413142
vn -0.764343 2.872213 0.969984
v 1.321812 1.001830 0.598359
vn -0.764342 2.872240 0.969974
v 0.880852 0.937567 0.441175
vn -0.910317 2.590861 1.494529
v 1.314528 0.987790 0.624532
vn -0.910315 2.590850 1.494530
v 0.873568 0.923527 0.467348
vn 1.021306 -2.209898 -1.961660
v 0.876524 0.886140 0.474344
vn 1.093034 -1.744016 -2.353365
v 1.314501 0.931033 0.647814
vn 1.093042 -1.744008 -2.353388
v 0.873541 0.866769 0.490632
vn 1.021305 -2.209892 -1.961660
v 1.317484 0.950404 0.631526
vn 1.122790 -1.211139 -2.654706
v 1.313264 0.908875 0.660342
vn 1.122781 -1.211110 -2.654692
v 0.872304 0.844611 0.503160
vn 1.109369 -0.631666 -2.853973
v 1.313822 0.884782 0.668628
vn 1.109361 -0.631674 -2.853950
v 0.872862 0.820517 0.511446
vn 1.053304 -0.027968 -2.943515
v 1.316153 0.859679 0.672354
vn 1.053320 -0.027958 -2.943561
v 0.875193 0.795414 0.515171
vn 0.956805 0.576839 -2.920071
v 1.320166 0.834532 0.671376
vn 0.956793 0.576831 -2.920033
v 0.879206 0.770267 0.514193
vn 0.823492 1.159439 -2.784272
v 1.325709 0.810306 0.665731
vn 0.823499 1.159448 -2.784296
v 0.884748 0.746041 0.508549
vn 0.658563 1.697489 -2.541563
v 1.332567 0.787933 0.655639
vn 0.468317 2.170354 -2.201175
v 1.340477 0.768272 0.641484
vn 0.468314 2.170339 -2.201160
v 0.899517 0.704008 0.484302
vn 0.260065 2.559764 -1.776154
v 0.908176 0.687815 0.466630
vn 0.260067 2.559782 -1.776167
v 1.349136 0.752080 0.623813
vn 0.041826 2.850826 -1.282907
v 0.917251 0.675713 0.446121
vn 0.041827 2.850790 -1.282895
v 1.358211 0.739978 0.603303
vn -0.178019 3.032314 -0.740354
v 0.926392 0.668167 0.423561
vn -0.178016 3.032336 -0.740368
v 1.367352 0.732431 0.580743
vn -0.391022 3.097295 -0.169358
v 0.935249 0.665465 0.399819
vn -0.391023 3.097281 -0.169351
v 1.376209 0.729729 0.557001
vn -0.589002 3.043234 0.408157
v 0.943481 0.667713 0.375805
vn -0.589005 3.043240 0.408163
v 1.384441 0.731977 0.532987
vn -0.764346 2.872220 0.969988
v 0.950772 0.674823 0.352444
vn -0.764349 2.872241 0.969989
v 1.391732 0.739088 0.509626
vn -0.910306 2.590784 1.494531
v 1.397802 0.750788 0.487815
vn -1.021303 2.209892 1.961653
v 0.961456 0.702363 0.311210
vn -1.021320 2.209904 1.961692
v 1.402416 0.766628 0.468392
vn -1.093045 1.744022 2.353387
v 0.964439 0.721735 0.294922
vn -1.093052 1.744042 2.353402
v 1.405399 0.785999 0.452104
vn -1.122779 1.211127 2.654681
v 0.965676 0.743893 0.282394
vn -1.122765 1.211109 2.654651
v 1.406636 0.808157 0.439576
vn -1.109365 0.631697 2.853955
v 0.965118 0.767986 0.274108
vn -1.109375 0.631686 2.853984
v 1.406078 0.832251 0.431290
vn -1.053320 0.027978 2.943556
v 0.962788 0.793088 0.270382
vn -1.053306 0.027958 2.943523
v 1.403748 0.857353 0.427565
vn -0.956796 -0.576811 2.920034
v 0.958774 0.818236 0.271360
vn -0.823504 -1.159428 2.784301
v 0.953232 0.842462 0.277004
vn -0.823492 -1.159432 2.784264
v 1.394192 0.906726 0.434187
vn -0.658566 -1.697499 2.541573
v 0.946374 0.864834 0.287097
vn -0.658569 -1.697542 2.541595
v 1.387333 0.929100 0.444280
vn -0.468318 -2.170325 2.201167
v 0.938463 0.884495 0.301251
vn -0.468310 -2.170326 2.201140
v 1.379423 0.948760 0.458434
vn -0.260077 -2.559754 1.776184
v 0.929804 0.900688 0.318923
vn -0.260068 -2.559752 1.776154
v 1.370764 0.964953 0.476106
vn -0.041836 -2.850810 1.282928
v 0.920730 0.912790 0.339432
vn -0.041827 -2.850855 1.282915
v 1.361689 0.977055 0.496615
vn 0.178012 -3.032320 0.740375
v 0.911588 0.920337 0.361992
vn 0.178018 -3.032305 0.740348
v 1.352548 0.984601 0.519175
vn 0.391018 -3.097289 0.169369
v 0.902731 0.923039 0.385734
vn 0.391026 -3.097292 0.169343
v 1.343691 0.987303 0.542918
vn 0.588997 -3.043235 -0.408142
v 0.894499 0.920791 0.409748
vn 0.589006 -3.043228 -0.408174
v 1.335459 0.985055 0.566931
vn 0.764341 -2.872236 -0.969967
v 0.887208 0.913681 0.433109
vn 0.764354 -2.872238 -0.970009
v 1.328168 0.977944 0.590292
vn 0.910313 -2.590842 -1.494529
v 0.881139 0.901981 0.454920
vn 0.910314 -2.590818 -1.494543
v 1.322099 0.966244 0.612103
# 249 vertices, 0 vertices normals

f 1//1 2//2 3//3
f 3//3 2//2 4//4
f 4//4 2//2 5//5
f 5//5 2//2 6//6
f 6//6 2//2 7//7
f 2//2 8//8 7//7
f 2//2 9//9 8//8
f 2//2 10//10 9//9
f 2//2 11//11 10//10
f 2//2 12//12 11//11
f 2//2 13//13 12//12
f 2//2 14//14 13//13
f 2//2 15//15 14//14
f 2//2 16//16 15//15
f 2//2 17//17 16//16
f 2//2 18//18 17//17
f 2//2 19//19 18//18
f 2//2 20//20 19//19
f 2//2 21//21 20//20
f 22//22 21//21 2//2
f 23//23 22//22 2//2
f 24//24 23//23 2//2
f 25//25 24//24 2//2
f 26//26 25//25 2//2
f 27//27 26//26 2//2
f 28//28 27//27 2//2
f 29//29 28//28 2//2
f 30//30 29//29 2//2
f 30//30 2//2 31//31
f 31//31 2//2 32//32
f 32//32 2//2 33//33
f 33//33 2//2 1//1
f 34//34 35//35 36//36
f 36//36 35//35 37//37
f 37//37 35//35 38//38
f 38//38 35//35 39//39
f 39//39 35//35 40//40
f 35//35 41//41 40//40
f 35//35 42//42 41//41
f 35//35 43//43 42//42
f 35//35 44//44 43//43
f 35//35 45//45 44//44
f 35//35 46//46 45//45
f 35//35 47//47 46//46
f 35//35 48//48 47//47
f 35//35 49//49 48//48
f 35//35 50//50 49//49
f 35//35 51//51 50//50
f 35//35 52//52 51//51
f 35//35 53//53 52//52
f 35//35 54//54 53//53
f 55//55 54//54 35//35
f 56//56 55//55 35//35
f 57//57 56//56 35//35
f 58//58 57//57 35//35
f 59//59 58//58 35//35
f 60//60 59//59 35//35
f 61//61 60//60 35//35
f 62//62 61//61 35//35
f 63//63 62//62 35//35
f 63//63 35//35 64//64
f 64//64 35//35 65//65
f 65//65 35//35 66//66
f 66//66 35//35 34//34
f 67//67 68//68 69//69
f 69//69 68//68 70//70
f 71//71 67//67 69//69
f 72//72 67//67 71//71
f 73//73 74//74 75//75
f 74//74 76//76 75//75
f 77//77 72//72 71//71
f 78//78 72//72 77//77
f 70//70 68//68 79//79
f 80//80 81//81 73//73
f 81//81 74//74 73//73
f 75//75 76//76 82//82
f 76//76 83//83 82//82
f 83//83 84//84 82//82
f 85//85 86//86 80//80
f 86//86 81//81 80//80
f 87//87 78//78 77//77
f 88//88 78//78 87//87
f 89//89 79//79 90//90
f 70//70 79//79 89//89
f 83//83 91//91 84//84
f 91//91 92//92 84//84
f 93//93 94//94 92//92
f 92//92 94//94 95//95
f 96//96 97//97 85//85
f 97//97 86//86 85//85
f 98//98 99//99 100//100
f 101//101 99//99 98//98
f 88//88 87//87 102//102
f 103//103 88//88 102//102
f 104//104 105//105 99//99
f 106//106 105//105 104//104
f 89//89 90//90 106//106
f 106//106 90//90 105//105
f 91//91 93//93 92//92
f 107//107 108//108 96//96
f 96//96 108//108 97//97
f 109//109 110//110 107//107
f 107//107 110//110 108//108
f 111//111 112//112 113//113
f 112//112 114//114 113//113
f 115//115 116//116 109//109
f 109//109 116//116 110//110
f 117//117 118//118 119//119
f 118//118 120//120 119//119
f 121//121 122//122 123//123
f 123//123 122//122 124//124
f 118//118 125//125 120//120
f 125//125 126//126 120//120
f 98//98 100//100 121//121
f 121//121 100//100 122//122
f 125//125 103//103 126//126
f 103//103 102//102 126//126
f 104//104 99//99 101//101
f 94//94 127//127 95//95
f 94//94 128//128 127//127
f 128//128 113//113 127//127
f 128//128 111//111 113//113
f 112//112 129//129 114//114
f 112//112 130//130 129//129
f 117//117 116//116 115//115
f 117//117 119//119 116//116
f 123//123 129//129 130//130
f 123//123 124//124 129//129
f 131//131 132//132 133//133
f 132//132 131//131 134//134
f 135//135 133//133 125//125
f 133//133 135//135 131//131
f 136//136 125//125 137//137
f 125//125 136//136 135//135
f 138//138 137//137 139//139
f 137//137 138//138 136//136
f 140//140 139//139 141//141
f 139//139 140//140 138//138
f 142//142 141//141 143//143
f 141//141 142//142 140//140
f 144//144 143//143 107//107
f 143//143 144//144 142//142
f 145//145 107//107 96//96
f 107//107 145//145 144//144
f 96//96 146//146 145//145
f 146//146 96//96 85//85
f 85//85 147//147 146//146
f 147//147 85//85 148//148
f 148//148 149//149 147//147
f 149//149 148//148 150//150
f 150//150 151//151 149//149
f 151//151 150//150 75//75
f 75//75 152//152 151//151
f 152//152 75//75 153//153
f 153//153 154//154 152//152
f 154//154 153//153 155//155
f 155//155 156//156 154//154
f 156//156 155//155 157//157
f 157//157 158//158 156//156
f 158//158 157//157 159//159
f 160//160 158//158 159//159
f 158//158 160//160 161//161
f 162//162 161//161 160//160
f 161//161 162//162 163//163
f 164//164 163//163 162//162
f 163//163 164//164 165//165
f 166//166 165//165 164//164
f 165//165 166//166 167//167
f 168//168 167//167 166//166
f 167//167 168//168 169//169
f 170//170 169//169 168//168
f 169//169 170//170 171//171
f 172//172 171//171 170//170
f 171//171 172//172 173//173
f 174//174 173//173 172//172
f 173//173 174//174 43//43
f 174//174 175//175 43//43
f 175//175 174//174 176//176
f 176//176 177//177 175//175
f 177//177 176//176 178//178
f 178//178 179//179 177//177
f 179//179 178//178 180//180
f 180//180 181//181 179//179
f 181//181 180//180 182//182
f 182//182 183//183 181//181
f 183//183 182//182 184//184
f 184//184 185//185 183//183
f 185//185 184//184 186//186
f 186//186 187//187 185//185
f 187//187 186//186 188//188
f 188//188 134//134 187//187
f 134//134 188//188 132//132
f 189//189 190//190 191//191
f 190//190 189//189 192//192
f 191//191 193//193 194//194
f 193//193 191//191 190//190
f 194//194 195//195 196//196
f 195//195 194//194 193//193
f 196//196 197//197 198//198
f 197//197 196//196 195//195
f 198//198 199//199 200//200
f 199//199 198//198 197//197
f 200//200 201//201 202//202
f 201//201 200//200 199//199
f 202//202 203//203 108//108
f 203//203 202//202 201//201
f 108//108 204//204 205//205
f 204//204 108//108 203//203
f 206//206 204//204 207//207
f 204//204 206//206 205//205
f 208//208 207//207 209//209
f 207//207 208//208 206//206
f 210//210 209//209 211//211
f 209//209 210//210 208//208
f 212//212 211//211 213//213
f 211//211 212//212 210//210
f 214//214 213//213 215//215
f 213//213 214//214 212//212
f 216//216 215//215 217//217
f 215//215 216//216 214//214
f 93//93 217//217 218//218
f 217//217 93//93 216//216
f 219//219 218//218 220//220
f 218//218 219//219 93//93
f 220//220 221//221 219//219
f 221//221 220//220 222//222
f 222//222 223//223 221//221
f 223//223 222//222 224//224
f 224//224 225//225 223//223
f 225//225 224//224 226//226
f 226//226 227//227 225//225
f 227//227 226//226 228//228
f 228//228 229//229 227//227
f 229//229 228//228 13//13
f 13//13 230//230 229//229
f 230//230 13//13 231//231
f 231//231 232//232 230//230
f 232//232 231//231 233//233
f 233//233 234//234 232//232
f 234//234 233//233 235//235
f 236//236 235//235 237//237
f 235//235 236//236 234//234
f 238//238 237//237 239//239
f 237//237 238//238 236//236
f 240//240 239//239 241//241
f 239//239 240//240 238//238
f 242//242 241//241 243//243
f 241//241 242//242 240//240
f 244//244 243//243 245//245
f 243//243 244//244 242//242
f 246//246 245//245 247//247
f 245//245 246//246 244//244
f 248//248 247//247 249//249
f 247//247 248//248 246//246
f 189//189 249//249 192//192
f 249//249 189//189 248//248
# 256 faces, 0 coords texture

# End of File
